<svg width="54" height="52" viewBox="0 0 54 52" fill="none" xmlns="http://www.w3.org/2000/svg">
<path d="M13 14.0161L20.5 21.5161M33 21.0161L38.5 16.5161M31 34.5161L33.5 40.5161M35 26.5161C35 30.9344 31.4183 34.5161 27 34.5161C22.5817 34.5161 19 30.9344 19 26.5161C19 22.0978 22.5817 18.5161 27 18.5161C31.4183 18.5161 35 22.0978 35 26.5161ZM14 9.01611C14 12.0537 11.5376 14.5161 8.5 14.5161C5.46243 14.5161 3 12.0537 3 9.01611C3 5.97855 5.46243 3.51611 8.5 3.51611C11.5376 3.51611 14 5.97855 14 9.01611ZM51 7.51611C51 9.72525 49.2091 11.5161 47 11.5161C44.7909 11.5161 43 9.72525 43 7.51611C43 5.30697 44.7909 3.51611 47 3.51611C49.2091 3.51611 51 5.30697 51 7.51611ZM39 44.5161C39 46.7253 37.2091 48.5161 35 48.5161C32.7909 48.5161 31 46.7253 31 44.5161C31 42.307 32.7909 40.5161 35 40.5161C37.2091 40.5161 39 42.307 39 44.5161Z" stroke="white" stroke-width="5.13" stroke-linecap="round" stroke-linejoin="round"/>
<path d="M13 14.0161L20.5 21.5161M33 21.0161L38.5 16.5161M31 34.5161L33.5 40.5161M35 26.5161C35 30.9344 31.4183 34.5161 27 34.5161C22.5817 34.5161 19 30.9344 19 26.5161C19 22.0978 22.5817 18.5161 27 18.5161C31.4183 18.5161 35 22.0978 35 26.5161ZM14 9.01611C14 12.0537 11.5376 14.5161 8.5 14.5161C5.46243 14.5161 3 12.0537 3 9.01611C3 5.97855 5.46243 3.51611 8.5 3.51611C11.5376 3.51611 14 5.97855 14 9.01611ZM51 7.51611C51 9.72525 49.2091 11.5161 47 11.5161C44.7909 11.5161 43 9.72525 43 7.51611C43 5.30697 44.7909 3.51611 47 3.51611C49.2091 3.51611 51 5.30697 51 7.51611ZM39 44.5161C39 46.7253 37.2091 48.5161 35 48.5161C32.7909 48.5161 31 46.7253 31 44.5161C31 42.307 32.7909 40.5161 35 40.5161C37.2091 40.5161 39 42.307 39 44.5161Z" stroke="url(#paint0_linear_10780_14602)" stroke-width="5.13" stroke-linecap="round" stroke-linejoin="round"/>
<defs>
<linearGradient id="paint0_linear_10780_14602" x1="31.081" y1="13.2188" x2="29.7048" y2="47.5464" gradientUnits="userSpaceOnUse">
<stop stop-color="#24D6F8"/>
<stop offset="1" stop-color="#50F2A5"/>
</linearGradient>
</defs>
</svg>
