<svg width="50" height="51" viewBox="0 0 50 51" fill="none" xmlns="http://www.w3.org/2000/svg">
<rect x="2.60547" y="3.12036" width="44.7917" height="44.7917" rx="10" fill="white"/>
<rect x="2.60547" y="3.12036" width="44.7917" height="44.7917" rx="10" fill="url(#paint0_linear_10840_1034)"/>
<path d="M34 13.5161H16C15.2044 13.5161 14.4413 13.8322 13.8787 14.3948C13.3161 14.9574 13 15.7205 13 16.5161V28.5161C13 29.3118 13.3161 30.0748 13.8787 30.6374C14.4413 31.2 15.2044 31.5161 16 31.5161H23.5V34.5161H20.5C20.1022 34.5161 19.7206 34.6741 19.4393 34.9555C19.158 35.2368 19 35.6183 19 36.0161C19 36.4139 19.158 36.7955 19.4393 37.0768C19.7206 37.3581 20.1022 37.5161 20.5 37.5161H29.5C29.8978 37.5161 30.2794 37.3581 30.5607 37.0768C30.842 36.7955 31 36.4139 31 36.0161C31 35.6183 30.842 35.2368 30.5607 34.9555C30.2794 34.6741 29.8978 34.5161 29.5 34.5161H26.5V31.5161H34C34.7956 31.5161 35.5587 31.2 36.1213 30.6374C36.6839 30.0748 37 29.3118 37 28.5161V16.5161C37 15.7205 36.6839 14.9574 36.1213 14.3948C35.5587 13.8322 34.7956 13.5161 34 13.5161ZM34 28.5161H16V16.5161H34V28.5161Z" fill="black"/>
<defs>
<linearGradient id="paint0_linear_10840_1034" x1="28.8095" y1="12.7781" x2="27.3487" y2="46.9392" gradientUnits="userSpaceOnUse">
<stop stop-color="#24D6F8"/>
<stop offset="1" stop-color="#50F2A5"/>
</linearGradient>
</defs>
</svg>
