<?xml version="1.0" encoding="UTF-8"?>
<svg className="spin-svg mt-4" width="1500px" height="150px" viewBox="0 0 150 150" version="1.1" xmlns="http://www.w3.org/2000/svg" xmlns:xlink="http://www.w3.org/1999/xlink">
    <title>wheel</title>
    <defs>
        <linearGradient x1="58.5021388%" y1="21.5614302%" x2="55.1020566%" y2="97.8218007%" id="linearGradient-1">
            <stop stop-color="#24D6F8" offset="0%"></stop>
            <stop stop-color="#50F2A5" offset="100%"></stop>
        </linearGradient>
    </defs>
    <g id="Page-1" stroke="none" stroke-width="1" fill="none" fill-rule="evenodd">
        <g id="wheel" fill="url(#linearGradient-1)" fill-rule="nonzero">
            <path d="M149.723143,104.843886 L127.942781,60.551586 C126.831861,58.266186 128.943426,55.763186 131.387858,56.307286 L142.054936,58.701486 C143.722337,59.027986 145.388717,58.048586 145.722606,56.416186 L148.945091,42.812786 C149.277958,41.180386 148.278335,39.547986 146.610934,39.221486 L97.6076199,28.229986 C95.0518913,27.685886 94.3851351,24.529886 96.3853016,22.897486 L104.941223,16.259086 C106.274736,15.170786 106.497328,13.320686 105.386408,12.014786 L96.4964957,1.13210602 C95.3852694,-0.173820978 93.4961949,-0.391474978 92.1627846,0.696796022 L52.9376089,31.385986 C50.9374424,33.018386 47.9372437,31.603586 47.9372437,28.991786 L47.9372437,18.217886 C47.9372437,16.585486 46.6038334,15.170786 44.825953,15.170786 L30.6026034,15.170786 C28.935815,15.170786 27.4913127,16.476686 27.4913127,18.217886 L27.4913127,67.407686 C27.4913127,69.910686 24.4910119,71.325486 22.4908453,69.801886 L13.9347193,63.163386 C12.601309,62.075186 10.7122345,62.292786 9.60102861,63.598786 L0.711473421,74.481386 C-0.399725318,75.787386 -0.177476993,77.637386 1.15595373,78.725686 L40.3811498,109.414886 C42.3813163,111.046886 41.7145601,114.202886 39.1588315,114.746886 L28.4913449,117.141886 C26.8245565,117.467886 25.8245243,119.100886 26.1578003,120.732886 L29.3802851,134.335886 C29.7136632,135.968886 31.3804516,136.947886 33.04724,136.621886 L82.0509621,125.629886 C84.6066907,125.085886 86.6068572,127.588886 85.4956309,129.873886 L80.7174497,139.559886 C79.9396015,141.083886 80.6063577,142.824886 82.1620541,143.586886 L95.0518913,149.680886 C96.6075877,150.442886 98.3854681,149.789886 99.1633163,148.265886 L120.942351,103.973886 C122.054292,101.687886 125.387052,101.687886 126.498993,103.973886 L131.276562,113.658886 C132.054614,115.182886 133.832291,115.835886 135.388395,115.073886 L148.278335,108.979886 C149.833418,108.108886 150.388878,106.367886 149.723143,104.843886 Z M104.052896,92.002586 L92.2738766,116.052886 C91.0515583,118.664886 87.1624193,118.229886 86.4956631,115.399886 L84.6066907,107.564886 C84.2733126,105.932886 82.6065242,104.952886 80.9397358,105.279886 L54.3822133,111.264886 C51.4931066,111.917886 49.4929401,108.652886 51.2708205,106.476886 L56.3822777,100.164886 C57.493504,98.858686 57.27132,97.008586 55.9378076,95.920286 L34.6029364,79.269786 C32.2693918,77.528586 33.6028021,73.828486 36.4919088,73.828486 L44.7147589,73.828486 C46.3815473,73.828486 47.8261517,72.522586 47.8261517,70.781286 L47.8261517,44.118686 C47.8261517,41.289186 51.4931066,39.983286 53.382079,42.268686 L58.6047303,48.471786 C59.7159566,49.777686 61.604929,49.995386 62.9383393,48.907086 L84.1622206,32.365386 C86.4956631,30.624186 89.718148,32.583086 89.0513918,35.412586 L87.1624193,43.248086 C86.8290412,44.880486 87.8290734,46.512886 89.495964,46.839386 L116.053486,52.824886 C118.943104,53.477786 119.387268,57.286786 116.720243,58.483886 L109.275649,61.966286 C107.719544,62.728086 107.052788,64.469386 107.830841,65.992886 L119.608839,90.043686 C120.832076,92.655486 118.165051,95.376186 115.498026,94.070286 L108.052412,90.587786 C106.608624,89.934886 104.829927,90.478986 104.052896,92.002586 Z" id="Shape"></path>
        </g>
    </g>
</svg>